<mxfile host="app.diagrams.net" modified="2024-05-17T11:48:10.802Z" agent="Mozilla/5.0 (Windows NT 10.0; Win64; x64) AppleWebKit/537.36 (KHTML, like Gecko) Chrome/124.0.0.0 Safari/537.36" etag="HkDlY-O72rc66Kp6rV6C" version="24.4.3" type="device">
  <diagram name="Page-1" id="ltKDDhKoVX-ahcrJtyar">
    <mxGraphModel dx="1050" dy="557" grid="1" gridSize="10" guides="1" tooltips="1" connect="1" arrows="1" fold="1" page="1" pageScale="1" pageWidth="850" pageHeight="1100" math="0" shadow="0">
      <root>
        <mxCell id="0" />
        <mxCell id="1" parent="0" />
        <mxCell id="q1erqw7fC9IlKxe8uAP3-5" value="" style="edgeStyle=orthogonalEdgeStyle;rounded=0;orthogonalLoop=1;jettySize=auto;html=1;" edge="1" parent="1" source="q1erqw7fC9IlKxe8uAP3-1" target="q1erqw7fC9IlKxe8uAP3-2">
          <mxGeometry relative="1" as="geometry" />
        </mxCell>
        <mxCell id="q1erqw7fC9IlKxe8uAP3-1" value="User Input" style="rounded=0;whiteSpace=wrap;html=1;" vertex="1" parent="1">
          <mxGeometry x="120" y="220" width="110" height="60" as="geometry" />
        </mxCell>
        <mxCell id="q1erqw7fC9IlKxe8uAP3-6" value="" style="edgeStyle=orthogonalEdgeStyle;rounded=0;orthogonalLoop=1;jettySize=auto;html=1;" edge="1" parent="1" source="q1erqw7fC9IlKxe8uAP3-2" target="q1erqw7fC9IlKxe8uAP3-3">
          <mxGeometry relative="1" as="geometry" />
        </mxCell>
        <mxCell id="q1erqw7fC9IlKxe8uAP3-2" value="Computing&lt;div&gt;Unit&lt;/div&gt;" style="whiteSpace=wrap;html=1;aspect=fixed;" vertex="1" parent="1">
          <mxGeometry x="310" y="210" width="80" height="80" as="geometry" />
        </mxCell>
        <mxCell id="q1erqw7fC9IlKxe8uAP3-3" value="Output" style="rounded=0;whiteSpace=wrap;html=1;" vertex="1" parent="1">
          <mxGeometry x="460" y="220" width="120" height="60" as="geometry" />
        </mxCell>
      </root>
    </mxGraphModel>
  </diagram>
</mxfile>
